<?xml version="1.0" encoding="UTF-8" standalone="no"?>
<!DOCTYPE svg PUBLIC "-//W3C//DTD SVG 1.1//EN" "http://www.w3.org/Graphics/SVG/1.1/DTD/svg11.dtd">
<svg xmlns="http://www.w3.org/2000/svg" version="1.1" viewBox="0 0 200 200">
<path fill="#ffffff" d="M 0.00,0.00 Q 100.00,0.00 200.00,0.00 Q 200.00,100.00 200.00,200.00 Q 100.00,200.00 0.00,200.00 Q 0.00,100.00 0.00,0.00 ZM 53.50,85.71 Q 52.95,86.75 52.25,90.75 Q 51.08,97.38 51.69,100.97 Q 52.91,108.11 53.99,115.28 Q 54.00,115.33 54.09,118.73 Q 54.17,121.58 56.71,123.25 Q 57.08,125.70 57.50,135.75 Q 57.97,147.01 56.82,154.33 Q 56.80,154.43 56.60,155.15 Q 56.27,156.27 57.75,156.29 L 59.19,156.56 A 0.60,0.50 5.7 0 1 59.68,157.06 L 60.00,171.46 Q 59.28,172.88 59.24,175.23 A 0.53,0.53 -89.4 0 1 58.71,175.75 L 35.75,175.71 Q 35.56,174.39 36.06,173.81 Q 40.54,168.65 39.98,161.73 Q 39.63,157.43 35.49,158.75 Q 34.27,159.14 34.59,157.91 Q 36.09,151.99 33.86,146.02 A 1.26,1.13 90.0 0 0 33.24,145.33 Q 31.45,144.50 29.68,145.69 Q 28.12,146.75 28.05,144.87 Q 27.96,142.19 27.33,139.44 Q 26.68,136.60 25.11,135.18 Q 22.58,132.86 20.39,135.77 Q 19.21,137.34 19.19,139.65 Q 19.16,143.00 20.25,146.21 Q 17.55,147.40 15.27,145.48 Q 12.63,143.26 9.41,144.27 A 0.83,0.78 85.8 0 0 8.87,144.94 Q 8.28,149.20 9.44,151.56 Q 10.83,154.42 8.11,154.29 Q 5.89,154.19 6.91,156.15 Q 9.34,160.87 10.35,165.49 Q 11.09,168.91 11.75,170.76 Q 12.66,173.34 13.50,175.96 Q 13.04,176.51 13.28,177.04 A 0.92,0.64 -6.9 0 0 14.06,177.45 Q 29.28,177.86 44.50,177.84 Q 114.88,177.75 185.25,177.71 Q 187.22,177.71 186.65,176.26 A 0.80,0.69 -8.9 0 0 185.93,175.81 L 172.00,175.71 Q 172.16,173.83 171.75,172.00 Q 170.69,167.29 171.18,162.49 Q 171.33,161.03 172.84,160.37 A 3.21,3.20 86.3 0 0 174.62,158.34 Q 175.14,156.54 175.43,154.42 Q 175.63,152.95 175.95,152.27 Q 176.95,150.16 178.57,151.85 Q 179.23,152.55 179.80,152.71 Q 181.67,153.25 180.94,151.06 Q 180.67,150.27 179.81,149.14 A 1.23,1.23 29.7 0 1 179.56,148.24 Q 180.18,142.68 179.00,139.75 Q 177.58,136.24 175.31,137.71 Q 174.12,138.47 173.28,140.29 Q 171.70,143.70 171.75,147.79 Q 171.78,149.79 170.23,148.53 Q 167.20,146.08 165.81,149.81 Q 164.95,152.13 165.39,158.49 Q 165.58,161.15 163.23,160.24 A 1.42,1.41 -70.6 0 0 161.38,161.13 Q 159.04,168.36 164.75,174.00 Q 165.68,174.92 165.50,175.71 L 145.48,175.75 Q 143.18,175.75 145.34,174.94 Q 147.11,174.28 148.09,172.42 Q 148.74,171.19 148.78,168.96 Q 149.36,133.10 148.71,97.25 L 148.71,79.50 Q 149.02,77.46 149.00,73.25 Q 148.92,52.13 148.75,30.98 A 1.50,1.50 0.2 0 0 147.27,29.49 Q 112.10,29.07 76.45,29.25 Q 76.31,29.25 74.57,29.12 Q 71.08,28.88 71.25,32.75 Q 71.52,38.76 71.08,52.57 A 0.59,0.58 -2.4 0 1 70.56,53.12 Q 67.85,53.42 66.56,54.06 Q 62.85,55.92 63.50,60.00 Q 64.17,64.21 61.27,66.77 Q 59.66,68.19 59.08,70.10 Q 58.88,70.72 59.04,73.92 Q 59.20,77.00 57.06,79.12 Q 54.78,81.39 54.50,81.91 Q 53.60,83.66 53.50,85.71 Z"/>
<path fill="#111216" d="M 148.71,79.50 Q 147.21,79.32 145.79,79.75 L 145.57,33.19 A 0.51,0.51 0.6 0 0 145.07,32.68 L 75.07,32.50 A 0.57,0.57 89.7 0 0 74.50,33.07 L 74.43,53.22 A 0.95,0.94 16.6 0 0 74.86,54.01 Q 79.05,56.73 76.71,61.25 Q 75.24,63.69 73.96,66.23 Q 73.07,68.01 74.21,69.50 L 75.29,73.50 Q 73.61,78.09 74.75,82.50 Q 75.94,87.07 73.46,89.92 Q 71.47,92.21 67.49,93.05 Q 61.96,94.21 57.06,90.94 Q 54.43,89.18 53.50,85.71 Q 53.60,83.66 54.50,81.91 Q 54.78,81.39 57.06,79.12 Q 59.20,77.00 59.04,73.92 Q 58.88,70.72 59.08,70.10 Q 59.66,68.19 61.27,66.77 Q 64.17,64.21 63.50,60.00 Q 62.85,55.92 66.56,54.06 Q 67.85,53.42 70.56,53.12 A 0.59,0.58 -2.4 0 0 71.08,52.57 Q 71.52,38.76 71.25,32.75 Q 71.08,28.88 74.57,29.12 Q 76.31,29.25 76.45,29.25 Q 112.10,29.07 147.27,29.49 A 1.50,1.50 0.2 0 1 148.75,30.98 Q 148.92,52.13 149.00,73.25 Q 149.02,77.46 148.71,79.50 Z"/>
<path fill="#eff8fa" d="M 145.79,79.75 L 145.79,96.50 Q 145.68,127.83 145.51,159.15 Q 145.49,163.15 145.27,163.83 Q 144.39,166.48 140.50,166.50 Q 108.39,166.69 76.29,166.25 Q 76.38,161.73 77.00,157.25 Q 77.18,155.93 77.75,155.71 Q 81.70,156.09 82.05,152.23 Q 82.22,150.37 82.29,148.50 L 94.32,148.18 A 1.02,0.96 89.7 0 0 95.26,147.17 L 95.43,133.51 A 1.00,0.94 -89.1 0 0 94.51,132.50 L 81.54,132.25 L 81.04,126.00 L 94.39,125.73 A 0.88,0.87 -0.7 0 0 95.25,124.86 Q 95.25,118.44 95.25,113.21 Q 95.25,113.11 95.35,111.80 Q 95.52,109.53 93.27,109.65 Q 91.82,109.73 91.72,109.73 Q 85.87,109.59 80.04,110.00 L 79.96,109.75 Q 79.30,106.37 79.79,103.00 L 94.20,103.21 A 1.09,1.04 -89.7 0 0 95.25,102.12 L 95.25,88.48 A 1.23,1.23 0.0 0 0 94.02,87.25 L 90.29,87.25 L 90.75,80.79 Q 91.07,80.50 91.50,80.46 Q 93.15,80.88 94.72,80.36 A 0.77,0.68 83.1 0 0 95.19,79.68 L 95.47,69.50 A 0.96,0.85 -16.5 0 1 95.94,68.75 Q 97.82,67.62 98.97,65.70 Q 99.69,64.51 100.54,65.50 Q 99.90,67.99 101.94,67.83 Q 103.01,67.75 103.06,67.75 Q 120.34,67.75 137.63,67.75 Q 137.69,67.75 138.88,67.85 Q 140.74,68.00 140.30,65.99 A 0.94,0.94 -6.1 0 0 139.38,65.25 L 101.00,65.21 Q 98.77,63.33 97.38,65.50 Q 96.79,66.41 96.64,66.58 Q 95.04,68.39 95.16,65.56 A 0.55,0.55 -84.8 0 0 94.69,64.99 Q 89.34,64.20 83.92,64.44 Q 83.79,64.44 81.59,64.34 Q 79.07,64.23 79.09,66.66 Q 79.11,69.23 79.10,69.34 Q 78.84,72.41 79.25,75.46 L 75.29,73.50 L 74.21,69.50 Q 74.51,68.60 75.86,68.80 A 0.61,0.61 13.5 0 0 76.53,68.39 Q 77.85,64.49 76.71,61.25 Q 79.05,56.73 74.86,54.01 A 0.95,0.94 16.6 0 1 74.43,53.22 L 74.50,33.07 A 0.57,0.57 -90.0 0 1 75.07,32.50 L 145.07,32.68 A 0.51,0.51 0.6 0 1 145.57,33.19 L 145.79,79.75 ZM 96.35,45.34 A 9.03 9.03 0.0 0 0 87.32,36.31 A 9.03 9.03 0.0 0 0 78.29,45.34 A 9.03 9.03 0.0 0 0 87.32,54.37 A 9.03 9.03 0.0 0 0 96.35,45.34 ZM 140.24,39.98 A 0.73 0.73 0.0 0 0 139.51,39.25 L 101.29,39.25 A 0.73 0.73 0.0 0 0 100.56,39.98 L 100.56,41.02 A 0.73 0.73 0.0 0 0 101.29,41.75 L 139.51,41.75 A 0.73 0.73 0.0 0 0 140.24,41.02 L 140.24,39.98 ZM 125.30,45.70 A 0.43 0.43 0.0 0 0 124.87,45.27 L 101.09,45.27 A 0.43 0.43 0.0 0 0 100.66,45.70 L 100.66,47.34 A 0.43 0.43 0.0 0 0 101.09,47.77 L 124.87,47.77 A 0.43 0.43 0.0 0 0 125.30,47.34 L 125.30,45.70 ZM 140.19,72.01 A 0.59 0.59 0.0 0 0 139.60,71.42 L 101.16,71.42 A 0.59 0.59 0.0 0 0 100.57,72.01 L 100.57,73.23 A 0.59 0.59 0.0 0 0 101.16,73.82 L 139.60,73.82 A 0.59 0.59 0.0 0 0 140.19,73.23 L 140.19,72.01 ZM 123.49,78.10 A 0.62 0.62 0.0 0 0 122.87,77.48 L 101.17,77.48 A 0.62 0.62 0.0 0 0 100.55,78.10 L 100.55,79.38 A 0.62 0.62 0.0 0 0 101.17,80.00 L 122.87,80.00 A 0.62 0.62 0.0 0 0 123.49,79.38 L 123.49,78.10 ZM 140.2207,88.7747 A 0.96 0.96 0.0 0 0 139.2623,87.8130 L 101.4624,87.7470 A 0.96 0.96 0.0 0 0 100.5007,88.7053 L 100.4993,89.5053 A 0.96 0.96 0.0 0 0 101.4577,90.4670 L 139.2576,90.5330 A 0.96 0.96 0.0 0 0 140.2193,89.5747 L 140.2207,88.7747 ZM 140.2188,94.5354 A 0.61 0.61 0.0 0 0 139.6078,93.9264 L 101.1278,93.9936 A 0.61 0.61 0.0 0 0 100.5189,94.6046 L 100.5212,95.9246 A 0.61 0.61 0.0 0 0 101.1322,96.5336 L 139.6122,96.4664 A 0.61 0.61 0.0 0 0 140.2211,95.8554 L 140.2188,94.5354 ZM 123.4951,100.6000 A 0.52 0.52 0.0 0 0 122.9787,100.0764 L 101.0993,99.9237 A 0.52 0.52 0.0 0 0 100.5757,100.4400 L 100.5649,101.9800 A 0.52 0.52 0.0 0 0 101.0813,102.5036 L 122.9607,102.6563 A 0.52 0.52 0.0 0 0 123.4843,102.1400 L 123.4951,100.6000 ZM 140.17,111.04 A 0.56 0.56 0.0 0 0 139.61,110.48 L 101.07,110.48 A 0.56 0.56 0.0 0 0 100.51,111.04 L 100.51,112.44 A 0.56 0.56 0.0 0 0 101.07,113.00 L 139.61,113.00 A 0.56 0.56 0.0 0 0 140.17,112.44 L 140.17,111.04 ZM 140.22,117.36 A 0.86 0.86 0.0 0 0 139.36,116.50 L 101.38,116.50 A 0.86 0.86 0.0 0 0 100.52,117.36 L 100.52,118.38 A 0.86 0.86 0.0 0 0 101.38,119.24 L 139.36,119.24 A 0.86 0.86 0.0 0 0 140.22,118.38 L 140.22,117.36 ZM 123.4948,123.0901 A 0.33 0.33 0.0 0 0 123.1665,122.7584 L 100.8668,122.6416 A 0.33 0.33 0.0 0 0 100.5351,122.9699 L 100.5252,124.8499 A 0.33 0.33 0.0 0 0 100.8535,125.1816 L 123.1532,125.2984 A 0.33 0.33 0.0 0 0 123.4849,124.9701 L 123.4948,123.0901 ZM 140.23,133.84 A 0.85 0.85 0.0 0 0 139.38,132.99 L 101.36,132.99 A 0.85 0.85 0.0 0 0 100.51,133.84 L 100.51,134.90 A 0.85 0.85 0.0 0 0 101.36,135.75 L 139.38,135.75 A 0.85 0.85 0.0 0 0 140.23,134.90 L 140.23,133.84 ZM 140.1614,139.6746 A 0.44 0.44 0.0 0 0 139.7222,139.2338 L 100.9822,139.1662 A 0.44 0.44 0.0 0 0 100.5415,139.6054 L 100.5386,141.2654 A 0.44 0.44 0.0 0 0 100.9778,141.7062 L 139.7178,141.7738 A 0.44 0.44 0.0 0 0 140.1585,141.3346 L 140.1614,139.6746 ZM 123.49,145.80 A 0.55 0.55 0.0 0 0 122.94,145.25 L 101.06,145.25 A 0.55 0.55 0.0 0 0 100.51,145.80 L 100.51,147.20 A 0.55 0.55 0.0 0 0 101.06,147.75 L 122.94,147.75 A 0.55 0.55 0.0 0 0 123.49,147.20 L 123.49,145.80 Z"/>
<path fill="#292f32" d="M 96.35,45.34 A 9.03 9.03 0.0 0 1 87.32,54.37 A 9.03 9.03 0.0 0 1 78.29,45.34 A 9.03 9.03 0.0 0 1 87.32,36.31 A 9.03 9.03 0.0 0 1 96.35,45.34 ZM 88.08,37.39 Q 82.45,36.41 79.75,42.75 Q 77.96,46.94 81.15,50.38 A 0.31,0.31 -55.8 0 0 81.67,50.28 Q 82.88,47.16 85.06,46.56 Q 90.97,44.95 92.95,50.37 Q 93.24,51.15 93.68,50.45 Q 96.83,45.50 94.49,41.59 Q 92.43,38.15 88.08,37.39 Z"/>
<path fill="#eff8fa" d="M 94.49,41.59 Q 96.83,45.50 93.68,50.45 Q 93.24,51.15 92.95,50.37 Q 90.97,44.95 85.06,46.56 Q 82.88,47.16 81.67,50.28 A 0.31,0.31 -55.8 0 1 81.15,50.38 Q 77.96,46.94 79.75,42.75 Q 82.45,36.41 88.08,37.39 Q 92.43,38.15 94.49,41.59 ZM 90.34,42.29 A 3.03 3.03 0.0 0 0 87.31,39.26 A 3.03 3.03 0.0 0 0 84.28,42.29 A 3.03 3.03 0.0 0 0 87.31,45.32 A 3.03 3.03 0.0 0 0 90.34,42.29 Z"/>
<circle fill="#292f32" cx="87.31" cy="42.29" r="3.03"/>
<rect fill="#292f32" x="100.56" y="39.25" width="39.68" height="2.50" rx="0.73"/>
<rect fill="#292f32" x="100.66" y="45.27" width="24.64" height="2.50" rx="0.43"/>
<path fill="#efab95" d="M 76.71,61.25 Q 77.85,64.49 76.53,68.39 A 0.61,0.61 13.5 0 1 75.86,68.80 Q 74.51,68.60 74.21,69.50 Q 73.07,68.01 73.96,66.23 Q 75.24,63.69 76.71,61.25 Z"/>
<path fill="#5a5f60" d="M 101.00,65.21 L 100.54,65.50 Q 99.69,64.51 98.97,65.70 Q 97.82,67.62 95.94,68.75 A 0.96,0.85 -16.5 0 0 95.47,69.50 L 95.19,79.68 A 0.77,0.68 83.1 0 1 94.72,80.36 Q 93.15,80.88 91.50,80.46 Q 91.45,79.58 92.25,79.21 Q 94.21,80.12 94.15,78.77 Q 94.11,77.70 94.11,77.62 Q 94.37,74.46 94.00,71.29 L 94.83,69.44 A 0.56,0.55 28.2 0 0 94.61,68.75 L 94.21,68.50 Q 94.75,65.17 91.93,65.60 Q 90.65,65.80 90.55,65.81 Q 85.93,66.16 81.29,65.81 A 0.72,0.72 88.4 0 0 80.52,66.63 Q 81.12,71.15 80.50,75.79 Q 79.79,75.86 79.25,75.46 Q 78.84,72.41 79.10,69.34 Q 79.11,69.23 79.09,66.66 Q 79.07,64.23 81.59,64.34 Q 83.79,64.44 83.92,64.44 Q 89.34,64.20 94.69,64.99 A 0.55,0.55 -84.8 0 1 95.16,65.56 Q 95.04,68.39 96.64,66.58 Q 96.79,66.41 97.38,65.50 Q 98.77,63.33 101.00,65.21 Z"/>
<path fill="#292f32" d="M 101.00,65.21 L 139.38,65.25 A 0.94,0.94 -6.1 0 1 140.30,65.99 Q 140.74,68.00 138.88,67.85 Q 137.69,67.75 137.63,67.75 Q 120.34,67.75 103.06,67.75 Q 103.01,67.75 101.94,67.83 Q 99.90,67.99 100.54,65.50 L 101.00,65.21 Z"/>
<path fill="#eff8fa" d="M 94.21,68.50 Q 92.21,71.49 88.97,72.82 A 0.97,0.62 -89.3 0 0 88.52,73.50 L 88.25,74.96 L 87.50,75.54 Q 85.13,73.69 83.09,71.48 Q 82.77,71.14 82.45,71.02 Q 81.76,70.74 81.60,71.19 A 1.01,0.69 38.1 0 0 81.88,72.07 L 86.50,77.04 Q 87.17,77.91 86.96,79.00 Q 84.90,78.84 82.96,79.50 L 80.50,75.79 Q 81.12,71.15 80.52,66.63 A 0.72,0.72 88.4 0 1 81.29,65.81 Q 85.93,66.16 90.55,65.81 Q 90.65,65.80 91.93,65.60 Q 94.75,65.17 94.21,68.50 Z"/>
<path fill="#9fa592" d="M 94.21,68.50 L 94.61,68.75 A 0.56,0.55 28.2 0 1 94.83,69.44 L 94.00,71.29 L 90.25,74.79 Q 89.23,74.67 88.25,74.96 L 88.52,73.50 A 0.97,0.62 -89.3 0 1 88.97,72.82 Q 92.21,71.49 94.21,68.50 Z"/>
<path fill="#9fa592" d="M 87.50,75.54 L 86.50,77.04 L 81.88,72.07 A 1.01,0.69 38.1 0 1 81.60,71.19 Q 81.76,70.74 82.45,71.02 Q 82.77,71.14 83.09,71.48 Q 85.13,73.69 87.50,75.54 Z"/>
<path fill="#eff8fa" d="M 94.00,71.29 Q 94.37,74.46 94.11,77.62 Q 94.11,77.70 94.15,78.77 Q 94.21,80.12 92.25,79.21 Q 92.58,76.39 90.25,74.79 L 94.00,71.29 Z"/>
<rect fill="#292f32" x="100.57" y="71.42" width="39.62" height="2.40" rx="0.59"/>
<path fill="#fccb4f" d="M 75.29,73.50 L 79.25,75.46 Q 79.79,75.86 80.50,75.79 L 82.96,79.50 Q 82.86,80.35 83.29,81.00 Q 84.20,82.89 84.92,84.82 Q 85.60,86.65 85.96,84.65 Q 86.20,83.32 86.54,82.00 Q 88.35,80.45 90.75,80.79 L 90.29,87.25 Q 90.10,87.93 90.50,88.46 Q 89.85,88.57 89.69,89.69 Q 89.26,92.71 89.00,95.77 A 1.84,1.84 89.0 0 1 87.39,97.44 Q 83.78,97.90 82.45,94.52 Q 81.93,93.21 81.58,91.84 Q 81.47,91.41 81.23,91.28 Q 80.91,91.12 80.50,91.29 Q 79.92,91.13 79.81,91.56 Q 78.40,97.00 79.79,103.00 Q 79.30,106.37 79.96,109.75 Q 77.84,109.86 75.76,110.30 Q 66.68,112.24 58.25,108.50 Q 59.00,102.52 58.95,96.50 Q 58.93,94.31 58.21,95.40 Q 58.00,95.71 57.98,96.15 Q 57.75,101.77 57.52,107.39 Q 57.50,107.70 57.40,108.09 Q 57.03,109.47 58.25,108.50 Q 56.35,115.76 56.71,123.25 Q 54.17,121.58 54.09,118.73 Q 54.00,115.33 53.99,115.28 Q 52.91,108.11 51.69,100.97 Q 51.08,97.38 52.25,90.75 Q 52.95,86.75 53.50,85.71 Q 54.43,89.18 57.06,90.94 Q 61.96,94.21 67.49,93.05 Q 71.47,92.21 73.46,89.92 Q 75.94,87.07 74.75,82.50 Q 73.61,78.09 75.29,73.50 Z"/>
<path fill="#efab95" d="M 90.25,74.79 Q 92.58,76.39 92.25,79.21 Q 91.45,79.58 91.50,80.46 Q 91.07,80.50 90.75,80.79 Q 88.35,80.45 86.54,82.00 Q 86.91,81.49 86.50,81.04 Q 87.80,80.30 86.96,79.00 Q 87.17,77.91 86.50,77.04 L 87.50,75.54 L 88.25,74.96 Q 89.23,74.67 90.25,74.79 Z"/>
<rect fill="#292f32" x="100.55" y="77.48" width="22.94" height="2.52" rx="0.62"/>
<path fill="#9fa592" d="M 86.96,79.00 Q 87.80,80.30 86.50,81.04 L 83.29,81.00 Q 82.86,80.35 82.96,79.50 Q 84.90,78.84 86.96,79.00 Z"/>
<path fill="#000000" d="M 148.71,79.50 L 148.71,97.25 Q 147.13,97.27 145.79,96.50 L 145.79,79.75 Q 147.21,79.32 148.71,79.50 Z"/>
<path fill="#eff8fa" d="M 83.29,81.00 L 86.50,81.04 Q 86.91,81.49 86.54,82.00 Q 86.20,83.32 85.96,84.65 Q 85.60,86.65 84.92,84.82 Q 84.20,82.89 83.29,81.00 Z"/>
<path fill="#5a5f60" d="M 90.29,87.25 L 94.02,87.25 A 1.23,1.23 45.0 0 1 95.25,88.48 L 95.25,102.12 A 1.09,1.04 -89.7 0 1 94.20,103.21 L 79.79,103.00 Q 78.40,97.00 79.81,91.56 Q 79.92,91.13 80.50,91.29 L 80.50,101.44 A 0.56,0.56 0.0 0 0 81.06,102.00 L 93.38,102.00 A 0.87,0.87 -45.0 0 0 94.25,101.13 L 94.25,89.39 A 1.19,0.96 -0.3 0 0 93.05,88.43 L 90.50,88.46 Q 90.10,87.93 90.29,87.25 Z"/>
<rect fill="#292f32" x="-19.86" y="-1.36" transform="translate(120.36,89.14) rotate(0.1)" width="39.72" height="2.72" rx="0.96"/>
<path fill="#eff8fa" d="M 80.50,91.29 Q 80.91,91.12 81.23,91.28 Q 81.47,91.41 81.58,91.84 Q 81.93,93.21 82.45,94.52 Q 83.78,97.90 87.39,97.44 A 1.84,1.84 89.0 0 0 89.00,95.77 Q 89.26,92.71 89.69,89.69 Q 89.85,88.57 90.50,88.46 L 93.05,88.43 A 1.19,0.96 -0.3 0 1 94.25,89.39 L 94.25,101.13 A 0.87,0.87 45.0 0 1 93.38,102.00 L 81.06,102.00 A 0.56,0.56 -0.0 0 1 80.50,101.44 L 80.50,91.29 Z"/>
<rect fill="#292f32" x="-19.85" y="-1.27" transform="translate(120.37,95.23) rotate(-0.1)" width="39.70" height="2.54" rx="0.61"/>
<path fill="#eff8fa" d="M 58.25,108.50 Q 57.03,109.47 57.40,108.09 Q 57.50,107.70 57.52,107.39 Q 57.75,101.77 57.98,96.15 Q 58.00,95.71 58.21,95.40 Q 58.93,94.31 58.95,96.50 Q 59.00,102.52 58.25,108.50 Z"/>
<path fill="#171721" d="M 145.79,96.50 Q 147.13,97.27 148.71,97.25 Q 149.36,133.10 148.78,168.96 Q 148.74,171.19 148.09,172.42 Q 147.11,174.28 145.34,174.94 Q 143.18,175.75 145.48,175.75 L 165.50,175.71 L 172.00,175.71 L 185.93,175.81 A 0.80,0.69 -8.9 0 1 186.65,176.26 Q 187.22,177.71 185.25,177.71 Q 114.88,177.75 44.50,177.84 Q 29.28,177.86 14.06,177.45 A 0.92,0.64 -6.9 0 1 13.28,177.04 Q 13.04,176.51 13.50,175.96 L 28.50,175.71 L 35.75,175.71 L 58.71,175.75 A 0.53,0.53 -89.4 0 0 59.24,175.23 Q 59.28,172.88 60.00,171.46 Q 61.93,171.55 63.46,172.75 Q 63.87,173.62 64.50,173.50 Q 66.65,173.10 67.00,174.95 A 0.76,0.50 82.4 0 0 67.54,175.57 L 71.14,175.64 A 0.59,0.53 81.1 0 0 71.63,174.88 Q 71.18,173.38 71.79,171.75 L 72.00,171.71 Q 73.51,172.47 74.96,173.32 Q 76.94,174.48 78.82,173.50 Q 79.24,173.28 78.78,173.09 L 76.39,172.05 A 0.81,0.71 15.2 0 1 75.90,171.31 L 76.29,166.25 Q 108.39,166.69 140.50,166.50 Q 144.39,166.48 145.27,163.83 Q 145.49,163.15 145.51,159.15 Q 145.68,127.83 145.79,96.50 Z"/>
<rect fill="#292f32" x="-11.46" y="-1.29" transform="translate(112.03,101.29) rotate(0.4)" width="22.92" height="2.58" rx="0.52"/>
<path fill="#f37435" d="M 58.25,108.50 Q 66.68,112.24 75.76,110.30 Q 77.84,109.86 79.96,109.75 L 80.04,110.00 Q 79.43,110.71 80.25,111.04 L 81.04,124.75 Q 80.45,125.42 81.04,126.00 L 81.54,132.25 Q 81.31,133.11 81.79,133.75 L 82.29,147.00 L 82.29,148.50 Q 82.22,150.37 82.05,152.23 Q 81.70,156.09 77.75,155.71 L 69.25,156.04 Q 67.75,155.47 66.25,155.79 Q 62.08,156.80 57.75,156.29 Q 56.27,156.27 56.60,155.15 Q 56.80,154.43 56.82,154.33 Q 57.97,147.01 57.50,135.75 Q 57.08,125.70 56.71,123.25 Q 56.35,115.76 58.25,108.50 Z"/>
<path fill="#5a5f60" d="M 81.04,126.00 Q 80.45,125.42 81.04,124.75 L 93.18,124.52 A 1.04,0.97 -0.3 0 0 94.20,123.56 L 94.25,111.92 A 0.92,0.92 -45.0 0 0 93.33,111.00 L 80.25,111.04 Q 79.43,110.71 80.04,110.00 Q 85.87,109.59 91.72,109.73 Q 91.82,109.73 93.27,109.65 Q 95.52,109.53 95.35,111.80 Q 95.25,113.11 95.25,113.21 Q 95.25,118.44 95.25,124.86 A 0.88,0.87 -0.7 0 1 94.39,125.73 L 81.04,126.00 Z"/>
<rect fill="#292f32" x="100.51" y="110.48" width="39.66" height="2.52" rx="0.56"/>
<path fill="#eff8fa" d="M 80.25,111.04 L 93.33,111.00 A 0.92,0.92 -45.0 0 1 94.25,111.92 L 94.20,123.56 A 1.04,0.97 -0.3 0 1 93.18,124.52 L 81.04,124.75 L 80.25,111.04 Z"/>
<rect fill="#292f32" x="100.52" y="116.50" width="39.70" height="2.74" rx="0.86"/>
<rect fill="#292f32" x="-11.48" y="-1.27" transform="translate(112.01,123.97) rotate(0.3)" width="22.96" height="2.54" rx="0.33"/>
<path fill="#5a5f60" d="M 81.54,132.25 L 94.51,132.50 A 1.00,0.94 -89.1 0 1 95.43,133.51 L 95.26,147.17 A 1.02,0.96 89.7 0 1 94.32,148.18 L 82.29,148.50 L 82.29,147.00 L 93.56,147.11 A 0.58,0.54 -87.7 0 0 94.10,146.57 Q 94.58,140.43 93.99,134.31 A 0.57,0.56 87.7 0 0 93.44,133.80 L 81.79,133.75 Q 81.31,133.11 81.54,132.25 Z"/>
<rect fill="#292f32" x="100.51" y="132.99" width="39.72" height="2.76" rx="0.85"/>
<path fill="#eff8fa" d="M 81.79,133.75 L 93.44,133.80 A 0.57,0.56 87.7 0 1 93.99,134.31 Q 94.58,140.43 94.10,146.57 A 0.58,0.54 -87.7 0 1 93.56,147.11 L 82.29,147.00 L 81.79,133.75 Z"/>
<path fill="#d3eefc" d="M 35.75,175.71 L 28.50,175.71 L 27.92,172.72 Q 27.79,172.06 27.85,171.76 Q 28.82,167.11 28.77,162.37 Q 28.76,161.01 28.15,160.32 Q 27.41,159.49 26.15,159.14 A 1.76,1.76 4.2 0 1 24.86,157.65 Q 24.04,150.81 20.25,146.21 Q 19.16,143.00 19.19,139.65 Q 19.21,137.34 20.39,135.77 Q 22.58,132.86 25.11,135.18 Q 26.68,136.60 27.33,139.44 Q 27.96,142.19 28.05,144.87 Q 28.12,146.75 29.68,145.69 Q 31.45,144.50 33.24,145.33 A 1.26,1.13 90.0 0 1 33.86,146.02 Q 36.09,151.99 34.59,157.91 Q 34.27,159.14 35.49,158.75 Q 39.63,157.43 39.98,161.73 Q 40.54,168.65 36.06,173.81 Q 35.56,174.39 35.75,175.71 Z"/>
<path fill="#d3eefc" d="M 172.00,175.71 L 165.50,175.71 Q 165.68,174.92 164.75,174.00 Q 159.04,168.36 161.38,161.13 A 1.42,1.41 -70.6 0 1 163.23,160.24 Q 165.58,161.15 165.39,158.49 Q 164.95,152.13 165.81,149.81 Q 167.20,146.08 170.23,148.53 Q 171.78,149.79 171.75,147.79 Q 171.70,143.70 173.28,140.29 Q 174.12,138.47 175.31,137.71 Q 177.58,136.24 179.00,139.75 Q 180.18,142.68 179.56,148.24 A 1.23,1.23 29.7 0 0 179.81,149.14 Q 180.67,150.27 180.94,151.06 Q 181.67,153.25 179.80,152.71 Q 179.23,152.55 178.57,151.85 Q 176.95,150.16 175.95,152.27 Q 175.63,152.95 175.43,154.42 Q 175.14,156.54 174.62,158.34 A 3.21,3.20 86.3 0 1 172.84,160.37 Q 171.33,161.03 171.18,162.49 Q 170.69,167.29 171.75,172.00 Q 172.16,173.83 172.00,175.71 Z"/>
<rect fill="#292f32" x="-19.81" y="-1.27" transform="translate(120.35,140.47) rotate(0.1)" width="39.62" height="2.54" rx="0.44"/>
<path fill="#eaf6fd" d="M 20.25,146.21 Q 24.04,150.81 24.86,157.65 A 1.76,1.76 4.2 0 0 26.15,159.14 Q 27.41,159.49 28.15,160.32 Q 28.76,161.01 28.77,162.37 Q 28.82,167.11 27.85,171.76 Q 27.79,172.06 27.92,172.72 L 28.50,175.71 L 13.50,175.96 Q 12.66,173.34 11.75,170.76 Q 11.09,168.91 10.35,165.49 Q 9.34,160.87 6.91,156.15 Q 5.89,154.19 8.11,154.29 Q 10.83,154.42 9.44,151.56 Q 8.28,149.20 8.87,144.94 A 0.83,0.78 85.8 0 1 9.41,144.27 Q 12.63,143.26 15.27,145.48 Q 17.55,147.40 20.25,146.21 Z"/>
<rect fill="#292f32" x="100.51" y="145.25" width="22.98" height="2.50" rx="0.55"/>
<path fill="#ffffff" d="M 69.25,156.04 Q 70.72,156.98 70.75,158.25 Q 70.82,161.63 71.04,165.00 Q 70.77,168.46 71.79,171.75 Q 71.18,173.38 71.63,174.88 A 0.59,0.53 81.1 0 1 71.14,175.64 L 67.54,175.57 A 0.76,0.50 82.4 0 1 67.00,174.95 Q 66.65,173.10 64.50,173.50 Q 63.87,173.62 63.46,172.75 Q 65.39,164.36 66.25,155.79 Q 67.75,155.47 69.25,156.04 Z"/>
<path fill="#efab95" d="M 77.75,155.71 Q 77.18,155.93 77.00,157.25 Q 76.38,161.73 76.29,166.25 L 75.90,171.31 A 0.81,0.71 15.2 0 0 76.39,172.05 L 78.78,173.09 Q 79.24,173.28 78.82,173.50 Q 76.94,174.48 74.96,173.32 Q 73.51,172.47 72.00,171.71 L 71.04,165.00 Q 70.82,161.63 70.75,158.25 Q 70.72,156.98 69.25,156.04 L 77.75,155.71 Z"/>
<path fill="#efab95" d="M 66.25,155.79 Q 65.39,164.36 63.46,172.75 Q 61.93,171.55 60.00,171.46 L 59.68,157.06 A 0.60,0.50 5.7 0 0 59.19,156.56 L 57.75,156.29 Q 62.08,156.80 66.25,155.79 Z"/>
<path fill="#5a5f60" d="M 71.04,165.00 L 72.00,171.71 L 71.79,171.75 Q 70.77,168.46 71.04,165.00 Z"/>
</svg>
